<?xml version="1.0" encoding="UTF-8" standalone="no"?>
<svg width="23px" height="33px" viewBox="0 0 23 33" version="1.1" xmlns="http://www.w3.org/2000/svg" xmlns:xlink="http://www.w3.org/1999/xlink" xmlns:sketch="http://www.bohemiancoding.com/sketch/ns">
    <!-- Generator: Sketch 3.4.4 (17249) - http://www.bohemiancoding.com/sketch -->
    <title>Fill 1</title>
    <desc>Created with Sketch.</desc>
    <defs></defs>
    <g id="Welcome" stroke="none" stroke-width="1" fill="none" fill-rule="evenodd" sketch:type="MSPage">
        <g id="added-ticket" sketch:type="MSArtboardGroup" transform="translate(-1574.000000, -728.000000)" fill="#D64495">
            <g id="Group" sketch:type="MSLayerGroup">
                <path d="M1591.18162,757.598854 L1580.10109,757.598854 L1580.10109,759.04377 C1580.10109,759.740156 1580.6791,760.304769 1581.39202,760.304769 L1589.89069,760.304769 C1590.60367,760.304769 1591.18162,759.740156 1591.18162,759.04377 L1591.18162,757.598854 Z M1580.10109,741.363494 L1576.07441,741.363494 C1574.95672,741.363494 1574.36721,740.070402 1575.11486,739.25895 L1584.68184,728.875443 C1585.19466,728.318902 1586.08811,728.318902 1586.60094,728.875443 L1596.16785,739.25895 C1596.91556,740.070402 1596.32599,741.363494 1595.2083,741.363494 L1591.18162,741.363494 L1591.18162,754.89294 L1580.10109,754.89294 L1580.10109,741.363494 Z" id="Fill-1" sketch:type="MSShapeGroup"></path>
            </g>
        </g>
    </g>
</svg>