<?xml version="1.0" encoding="UTF-8" standalone="no"?>
<svg width="33px" height="33px" viewBox="0 0 33 33" version="1.1" xmlns="http://www.w3.org/2000/svg" xmlns:xlink="http://www.w3.org/1999/xlink" xmlns:sketch="http://www.bohemiancoding.com/sketch/ns">
    <!-- Generator: Sketch 3.4.4 (17249) - http://www.bohemiancoding.com/sketch -->
    <title>Page 1</title>
    <desc>Created with Sketch.</desc>
    <defs></defs>
    <g id="Welcome" stroke="none" stroke-width="1" fill="none" fill-rule="evenodd" sketch:type="MSPage">
        <g id="added-ticket" sketch:type="MSArtboardGroup" transform="translate(-1523.000000, -1004.000000)" fill="#D64495">
            <g id="Group" sketch:type="MSLayerGroup">
                <g id="tweet-2" transform="translate(179.899004, 965.960171)" sketch:type="MSShapeGroup">
                    <path d="M1364.19542,50.269044 L1364.19542,40.3680286 C1364.19542,39.6085383 1363.58013,38.9928876 1362.82109,38.9928876 L1356.22428,38.9928876 C1355.46523,38.9928876 1354.84994,39.6085383 1354.84994,40.3680286 L1354.84994,50.269044 L1344.95473,50.269044 C1344.19569,50.269044 1343.5804,50.8846946 1343.5804,51.644185 L1343.5804,58.2448619 C1343.5804,59.0043523 1344.19569,59.6200029 1344.95473,59.6200029 L1354.84994,59.6200029 L1354.84994,69.5210183 C1354.84994,70.2805087 1355.46523,70.8961593 1356.22428,70.8961593 L1362.82109,70.8961593 C1363.58013,70.8961593 1364.19542,70.2805087 1364.19542,69.5210183 L1364.19542,59.6200029 L1374.09063,59.6200029 C1374.84968,59.6200029 1375.46497,59.0043523 1375.46497,58.2448619 L1375.46497,51.644185 C1375.46497,50.8846946 1374.84968,50.269044 1374.09063,50.269044 L1364.19542,50.269044 Z" id="Page-1"></path>
                </g>
            </g>
        </g>
    </g>
</svg>