<?xml version="1.0" encoding="UTF-8" standalone="no"?>
<svg width="24px" height="24px" viewBox="0 0 24 24" version="1.1" xmlns="http://www.w3.org/2000/svg" xmlns:xlink="http://www.w3.org/1999/xlink" xmlns:sketch="http://www.bohemiancoding.com/sketch/ns">
    <!-- Generator: Sketch 3.4.4 (17249) - http://www.bohemiancoding.com/sketch -->
    <title>Fill 1</title>
    <desc>Created with Sketch.</desc>
    <defs></defs>
    <g id="Welcome" stroke="none" stroke-width="1" fill="none" fill-rule="evenodd" sketch:type="MSPage">
        <g id="new-tweets" sketch:type="MSArtboardGroup" transform="translate(-352.000000, -611.000000)" fill="#95CD44">
            <path d="M364,631.752172 C362.705876,631.752172 361.656786,630.703081 361.656786,629.408958 C361.656786,628.114834 362.705876,627.065744 364,627.065744 C365.294124,627.065744 366.343214,628.114834 366.343214,629.408958 C366.343214,630.703081 365.294124,631.752172 364,631.752172 L364,631.752172 Z M361.723735,614.917285 C361.723735,614.549065 362.025005,614.247795 362.393225,614.247795 L365.606775,614.247795 C365.974995,614.247795 366.276265,614.549065 366.276265,614.917285 L366.276265,625.224647 C366.276265,625.592867 365.974995,625.894137 365.606775,625.894137 L362.393225,625.894137 C362.025005,625.894137 361.723735,625.592867 361.723735,625.224647 L361.723735,614.917285 Z M364,611 C357.372588,611 352,616.372554 352,623 C352,629.627412 357.372588,635 364,635 C370.627412,635 376,629.627412 376,623 C376,616.372554 370.627412,611 364,611 L364,611 Z" id="Fill-1" sketch:type="MSShapeGroup"></path>
        </g>
    </g>
</svg>