<?xml version="1.0" encoding="UTF-8" standalone="no"?>
<svg width="36px" height="32px" viewBox="0 0 36 32" version="1.1" xmlns="http://www.w3.org/2000/svg" xmlns:xlink="http://www.w3.org/1999/xlink" xmlns:sketch="http://www.bohemiancoding.com/sketch/ns">
    <!-- Generator: Sketch 3.4.4 (17249) - http://www.bohemiancoding.com/sketch -->
    <title>Fill 1</title>
    <desc>Created with Sketch.</desc>
    <defs></defs>
    <g id="Welcome" stroke="none" stroke-width="1" fill="none" fill-rule="evenodd" sketch:type="MSPage">
        <g id="added-ticket" sketch:type="MSArtboardGroup" transform="translate(-1617.000000, -1005.000000)" fill="#D64495">
            <g id="Group" sketch:type="MSLayerGroup">
                <g id="tweet-2" transform="translate(179.899004, 965.960171)" sketch:type="MSShapeGroup">
                    <path d="M1471.19291,53.0970775 C1469.0977,47.8612116 1463.44061,45.2432103 1454.22096,45.2432103 L1449.87626,45.2432103 L1449.87626,40.2542367 C1449.87626,39.9162187 1449.75336,39.6238659 1449.50778,39.3771101 C1449.26205,39.1302177 1448.97135,39.0067374 1448.635,39.0067374 C1448.29859,39.0067374 1448.00762,39.1302177 1447.76203,39.3771101 L1437.83123,49.3550572 C1437.58564,49.6021544 1437.46275,49.8943707 1437.46275,50.2321839 C1437.46275,50.5699289 1437.58564,50.8621451 1437.83123,51.1091058 L1447.7621,61.087326 C1448.00796,61.3339454 1448.29893,61.4578352 1448.63507,61.4578352 C1448.97115,61.4578352 1449.26205,61.3340136 1449.50784,61.087326 C1449.7535,60.8406384 1449.87633,60.5482173 1449.87633,60.2103359 L1449.87633,55.221021 L1454.22103,55.221021 C1455.48797,55.221021 1456.6225,55.259792 1457.62455,55.3376071 C1458.62654,55.4156271 1459.62275,55.5552847 1460.61156,55.7569215 C1461.60097,55.9582852 1462.46104,56.2341193 1463.19169,56.585243 C1463.92221,56.9363667 1464.60435,57.3876945 1465.23806,57.9396358 C1465.87183,58.4921232 1466.38909,59.1478181 1466.79019,59.9081538 C1467.19074,60.6682847 1467.5044,61.5675955 1467.73083,62.6070418 C1467.95678,63.6465564 1468.0703,64.8224521 1468.0703,66.1343196 C1468.0703,66.8487171 1468.03776,67.6480287 1467.97329,68.5314351 C1467.97329,68.6090455 1467.95726,68.7618089 1467.92472,68.9893157 C1467.89258,69.2168226 1467.87635,69.3887667 1467.87635,69.5054894 C1467.87635,69.7000955 1467.93124,69.8626199 1468.04095,69.9925848 C1468.15115,70.1224132 1468.30319,70.1871909 1468.49708,70.1871909 C1468.70401,70.1871909 1468.88485,70.0769528 1469.04016,69.8559305 C1469.13037,69.7391396 1469.21414,69.5961372 1469.2922,69.42706 C1469.36985,69.2583923 1469.45728,69.0635814 1469.55402,68.8426274 C1469.65124,68.6216734 1469.71911,68.4663162 1469.75769,68.3751906 C1471.3997,64.6729652 1472.22091,61.7432939 1472.22091,59.5864497 C1472.22078,57.0012809 1471.87831,54.8378156 1471.19291,53.0970775" id="Fill-1"></path>
                </g>
            </g>
        </g>
    </g>
</svg>